<?xml version="1.0" encoding="utf-8"?>
<!-- Generator: Adobe Illustrator 23.0.2, SVG Export Plug-In . SVG Version: 6.00 Build 0)  -->
<svg version="1.1" id="Layer_1" xmlns="http://www.w3.org/2000/svg" xmlns:xlink="http://www.w3.org/1999/xlink" x="0px" y="0px"
	 viewBox="0 0 512 512" style="enable-background:new 0 0 512 512;" xml:space="preserve" fill="#FFCB9A">
<title>BELL</title>
<path d="M390.8,348.1c-0.3-7.4-3.8-14.2-9.6-18.8c-24.5-21.6-39.6-51.9-42.1-84.5l-1.7-48.6c-1.4-44.1-37.6-79-81.6-78.8
	c-4,0-7.9,0.3-11.9,1v-18c0-6.6,5.3-11.9,11.9-11.9c6.6,0,11.9,5.3,11.9,11.9c0,2.8,2.2,5,5,5s5-2.2,5-5c0-12.1-9.8-21.9-21.9-21.9
	c-12.1,0-21.9,9.8-21.9,21.9v20.1c-13.3,3.7-25.5,10.7-35.3,20.3c-2,1.9-2.1,5.1-0.2,7.1c1.9,2,5.1,2.1,7.1,0.2c0,0,0.1-0.1,0.1-0.1
	c28.3-27.7,73.7-27.3,101.4,1c12.5,12.8,19.8,29.8,20.4,47.7l1.7,48.7c2.6,35.2,18.9,68,45.4,91.4c3.6,2.8,5.9,6.9,6.3,11.5
	c0,18.4-51.3,38.9-125,38.9s-125-20.5-125-38.9c0.4-4.5,2.7-8.7,6.3-11.5c1.1-1,2.1-2,3.1-3c23.9,14.2,67.5,23,115.6,23
	c26.6,0.2,53.2-2.7,79.1-8.9c2.7-0.7,4.3-3.4,3.6-6.1c-0.7-2.7-3.4-4.3-6.1-3.6l0,0c-25.1,6-50.9,8.9-76.7,8.6
	c-44.3,0-85.7-7.9-108.4-20.4c20.6-22.2,33-50.9,35.1-81.1l1.7-48.6c0.3-7.7,1.8-15.4,4.5-22.6c1-2.6-0.3-5.5-2.9-6.4
	c-2.6-1-5.5,0.3-6.4,2.9c-3.1,8.3-4.8,17-5.1,25.8l-1.7,48.5c-2.5,32.6-17.6,63-42.1,84.6c-5.8,4.6-9.2,11.5-9.6,18.8
	c0,31.8,69.6,48.9,135,48.9c9.3,0,18.7-0.4,28-1v0.4c0,15.4-12.5,28-28,28c-11.2,0-23.8-10.9-28.2-21.2c-2.3-4.2-4.4-12-8.8-10.3
	c-6.1,2.3-0.6,12.2,0.4,14.8c0.4,1,1.5,3.5,1.5,3.6c8.2,19.3,30.6,28.3,49.9,20.1c14.1-5.9,23.2-19.7,23.2-35v-1.3
	C345.6,389.9,390.8,373.8,390.8,348.1z"/>
<path d="M188,162.7c2.4,1.4,5.4,0.7,6.9-1.6c0.4-0.6,0.7-1.2,1.1-1.8c1.5-2.3,0.8-5.4-1.5-6.9c-2.3-1.5-5.3-0.8-6.8,1.4
	c-0.4,0.7-0.9,1.3-1.3,2C185,158.2,185.7,161.3,188,162.7z"/>
<path d="M353.3,341.3c0.6,0,1.2-0.1,1.8-0.3l1.4-0.6c2.6-1,3.9-3.8,2.9-6.4c-1-2.6-3.8-3.9-6.4-2.9c-0.1,0-0.1,0-0.2,0.1l-1.3,0.5
	c-2.6,1-3.9,3.9-2.9,6.5C349.4,340.1,351.3,341.3,353.3,341.3z"/>
</svg>
